<svg version="1.1" id="Layer_1" xmlns="http://www.w3.org/2000/svg" xmlns:xlink="http://www.w3.org/1999/xlink" x="0px" y="0px"
	 width="100%" viewBox="0 0 1024 1024" enable-background="new 0 0 1024 1024" xml:space="preserve">
<path fill="#000000" opacity="1.000000" stroke="none" 
	d="
M653.000000,1025.000000 
	C435.333344,1025.000000 218.166672,1025.000000 1.000000,1025.000000 
	C1.000000,683.666687 1.000000,342.333344 1.000000,1.000000 
	C342.333344,1.000000 683.666687,1.000000 1025.000000,1.000000 
	C1025.000000,342.333344 1025.000000,683.666687 1025.000000,1025.000000 
	C901.166687,1025.000000 777.333313,1025.000000 653.000000,1025.000000 
M405.248688,426.248566 
	C402.573212,423.747528 399.927765,421.213440 397.217743,418.750458 
	C365.206055,389.657318 318.654724,388.229553 284.659790,415.187469 
	C265.710571,430.214172 250.597229,448.829651 235.565826,467.506805 
	C234.689621,468.595520 235.003342,471.649017 235.925674,472.986847 
	C238.558105,476.805450 241.870621,480.146667 244.773743,483.788727 
	C257.767456,500.089966 271.174225,515.981995 288.480743,528.007690 
	C310.157715,543.070374 333.992981,547.956726 359.644135,541.861511 
	C378.679596,537.338257 394.103668,526.414978 407.256073,512.180908 
	C415.496948,503.262299 423.566772,494.185425 431.824188,485.282379 
	C437.175385,479.512817 443.670380,476.328705 451.803589,476.914764 
	C455.109558,477.153046 458.508850,477.151306 461.771667,476.648590 
	C465.349854,476.097321 467.977631,473.894073 467.862579,469.921967 
	C467.744812,465.856232 465.051331,464.178162 461.244629,463.973816 
	C458.250519,463.813019 455.252747,463.479553 452.262390,463.535095 
	C443.159668,463.704132 435.829498,460.100494 429.829376,453.433807 
	C421.813995,444.527954 413.775574,435.642853 405.248688,426.248566 
M714.358032,539.765198 
	C719.372314,537.558411 724.625854,535.771729 729.361084,533.075073 
	C755.476013,518.202881 772.938538,494.421692 791.557678,471.885376 
	C792.374207,470.896973 792.135132,468.086884 791.301575,466.868073 
	C789.061340,463.591827 786.385132,460.569702 783.610046,457.710724 
	C770.760376,444.472687 758.374939,430.712891 744.753906,418.314789 
	C730.955139,405.754913 714.178040,398.139191 695.452026,396.206482 
	C671.725281,393.757629 650.454895,400.757141 632.638794,416.331604 
	C622.427185,425.258392 613.358887,435.596710 604.454041,445.886414 
	C595.099976,456.695282 584.792786,464.775391 569.574097,463.794159 
	C568.090820,463.698547 566.584167,463.951172 565.089233,464.054321 
	C561.113281,464.328644 558.988159,466.494385 558.911255,470.444153 
	C558.837646,474.229095 561.034912,476.363190 564.607727,476.733124 
	C567.907043,477.074677 571.280579,477.162018 574.585083,476.901093 
	C583.134399,476.226044 589.581360,479.833710 595.256714,485.889130 
	C607.413696,498.860291 618.852783,512.713440 632.266113,524.252075 
	C655.979370,544.650940 683.680786,549.234314 714.358032,539.765198 
M453.406677,343.220367 
	C460.742310,351.343933 467.743866,359.805267 475.513000,367.490570 
	C482.477142,374.379639 490.330322,380.364380 497.709015,386.841736 
	C504.003357,392.367218 508.044617,398.880402 507.090302,407.798187 
	C506.667847,411.745728 506.809692,415.808716 507.195282,419.770630 
	C507.515533,423.061279 508.943146,426.009552 513.039001,425.889557 
	C517.154297,425.769073 518.902588,423.295654 518.973694,419.389862 
	C519.034302,416.059875 519.282349,412.719238 519.105164,409.401611 
	C518.550232,399.011719 523.347168,391.559143 530.860657,384.780060 
	C543.680115,373.213623 557.225098,362.064392 568.075317,348.786774 
	C587.773804,324.681305 592.451904,297.296600 579.520813,268.022125 
	C572.194397,251.436295 560.663635,237.865372 547.741760,225.535904 
	C536.588928,214.894409 524.724121,204.999069 512.890015,194.522400 
	C504.088318,202.164856 495.812408,209.354202 487.532684,216.539215 
	C474.779663,227.606003 463.333405,239.876053 453.852539,253.869019 
	C446.172302,265.204437 441.426239,277.740204 440.074799,291.402435 
	C438.236267,309.988586 442.935822,326.997650 453.406677,343.220367 
M579.582703,607.761841 
	C574.811523,600.381531 570.997070,592.096680 565.060913,585.817749 
	C554.228210,574.359253 542.132080,564.096130 530.576599,553.319702 
	C525.704285,548.775940 520.389282,544.417664 519.673584,537.179321 
	C519.152588,531.910645 519.674561,526.495422 518.719360,521.332764 
	C518.290100,519.012634 515.722656,515.964661 513.533630,515.348083 
	C509.953308,514.339661 507.841309,517.391174 507.206879,520.818665 
	C506.848145,522.756897 506.805359,524.841431 507.081848,526.794800 
	C508.648163,537.860535 503.879578,545.899475 495.745178,552.910400 
	C485.163208,562.030823 474.614624,571.262390 464.808990,581.193848 
	C450.619080,595.565674 441.804932,612.873169 439.991516,633.267029 
	C438.137329,654.119324 444.485168,672.609741 456.552917,689.418579 
	C469.226685,707.071533 485.668396,720.860596 502.373230,734.387268 
	C505.842987,737.196960 509.450195,741.938477 513.004089,741.947693 
	C516.512451,741.956909 520.120117,737.201782 523.534302,734.356812 
	C540.034912,720.607422 556.788330,707.101562 569.462952,689.443176 
	C587.489136,664.328796 592.273010,637.494202 579.582703,607.761841 
M420.633698,553.145386 
	C415.893036,557.821472 411.145447,562.490601 406.413391,567.175415 
	C399.578918,573.941650 391.512421,577.302429 381.744720,577.169495 
	C364.425934,576.933716 347.101318,577.112610 329.779175,577.144531 
	C324.252747,577.154663 320.924744,579.744324 321.060699,583.820740 
	C321.195038,587.847595 324.070770,589.936462 329.678925,589.941711 
	C344.336060,589.955444 358.993225,589.927368 373.650391,589.916382 
	C375.676636,589.914856 377.702850,589.916138 379.729095,589.916138 
	C379.859314,590.426392 379.989532,590.936646 380.119751,591.446899 
	C377.263733,594.191284 374.411713,596.939758 371.550995,599.679199 
	C361.579376,609.228088 351.630035,618.800537 341.613922,628.302551 
	C339.000336,630.781982 337.565247,633.977539 339.920837,636.634827 
	C341.564636,638.489197 344.973083,639.234802 347.686462,639.491638 
	C349.023865,639.618164 350.703491,637.652100 352.004425,636.400269 
	C363.034485,625.787170 374.007080,615.114380 385.015167,604.478394 
	C386.216125,603.318054 387.532501,602.277100 389.895050,600.226074 
	C389.316315,609.448486 388.857422,617.049316 388.357758,624.647522 
	C387.790375,633.274719 386.962891,641.892151 386.674347,650.527954 
	C386.468994,656.672729 392.272461,660.299988 396.735748,656.730591 
	C398.662323,655.189880 399.599731,651.627563 399.833801,648.885254 
	C401.133972,633.651001 402.342499,618.398804 403.058197,603.128174 
	C403.566315,592.286682 408.129272,583.923950 415.861786,576.566956 
	C430.441803,562.694946 444.690582,548.473450 459.008484,534.327820 
	C467.051147,526.381958 474.991455,518.331299 482.904083,510.255585 
	C485.488434,507.617981 486.541016,504.503082 483.801483,501.361298 
	C480.990967,498.138031 477.772400,498.289459 474.555389,500.915924 
	C473.784271,501.545502 472.962006,502.122955 472.252014,502.815399 
	C455.215546,519.430664 438.191132,536.058289 420.633698,553.145386 
M554.478577,437.015076 
	C576.815552,415.590759 598.927307,393.922180 621.673340,372.941315 
	C626.408630,368.573547 633.391052,366.516876 639.544250,363.875854 
	C641.864197,362.880096 644.767883,363.037781 647.407043,363.026337 
	C663.730896,362.955414 680.055237,363.011200 696.379211,362.969360 
	C701.997803,362.954956 704.860779,360.818146 704.960632,356.797028 
	C705.064392,352.617889 701.967285,350.249908 696.233093,350.132111 
	C695.400574,350.115021 694.567444,350.126038 693.734558,350.125763 
	C679.742371,350.121063 665.750183,350.116608 651.757996,350.112274 
	C649.632568,350.111633 647.507080,350.112213 644.507812,350.112213 
	C645.865967,348.519318 646.519226,347.608246 647.313416,346.843475 
	C659.415039,335.189728 671.558167,323.578949 683.639648,311.904327 
	C688.491943,307.215515 689.202209,303.851929 686.218750,300.862427 
	C683.145142,297.782593 679.819824,298.328461 674.951111,302.711975 
	C674.456299,303.157410 673.947388,303.588104 673.469360,304.050812 
	C662.712952,314.462402 651.968140,324.885925 641.195007,335.280182 
	C639.964050,336.467896 638.578186,337.495209 636.938538,338.869873 
	C636.601379,337.625122 636.349609,337.169098 636.377625,336.731049 
	C637.386963,320.973694 638.373657,305.214600 639.478210,289.463806 
	C639.916138,283.218536 636.585144,279.649628 631.123352,281.010803 
	C626.829651,282.080902 626.447998,285.652527 626.216492,289.266449 
	C625.142517,306.034485 624.133240,322.807465 622.914673,339.565125 
	C622.306763,347.924652 619.495911,355.456909 613.334351,361.463165 
	C598.199524,376.216400 583.092163,390.997894 567.938416,405.731750 
	C560.066040,413.386078 552.056396,420.900177 544.230286,428.601074 
	C539.976318,432.787048 540.318542,437.173798 544.724243,439.795380 
	C548.606079,442.105225 551.339233,440.118958 554.478577,437.015076 
M670.668091,614.874634 
	C662.952515,606.835938 655.236938,598.797302 647.050903,590.268494 
	C649.276428,590.134399 651.044861,589.937317 652.813354,589.935608 
	C666.137024,589.922791 679.460693,589.953918 692.784363,589.956726 
	C694.948608,589.957153 697.377380,590.490479 699.208618,589.690186 
	C701.382935,588.739685 704.224243,586.842407 704.595154,584.932007 
	C704.968506,583.008545 703.080139,580.138245 701.391724,578.496033 
	C700.213379,577.349976 697.704590,577.250244 695.786194,577.236877 
	C678.632629,577.117065 661.477600,577.189026 644.324219,577.058838 
	C635.498840,576.991821 627.654053,574.053162 621.249329,567.883789 
	C609.988098,557.036377 598.845276,546.066223 587.631836,535.169067 
	C576.295105,524.152039 564.971924,513.120361 553.562866,502.178497 
	C548.872803,497.680603 543.947144,498.156097 541.714417,503.166565 
	C539.828979,507.397491 543.098450,509.713165 545.494568,512.075256 
	C567.540344,533.808167 589.673279,555.452576 611.755676,577.148438 
	C617.616394,582.906616 621.672424,589.545593 622.251953,598.050232 
	C623.054016,609.820496 624.144836,621.570740 625.052734,633.334229 
	C625.500854,639.141052 625.695374,644.969177 626.229309,650.767029 
	C626.663818,655.485474 629.665710,658.175354 633.626892,657.814941 
	C637.392090,657.472412 639.611023,654.546509 639.312500,649.857605 
	C638.731628,640.732483 637.955994,631.619934 637.337280,622.497070 
	C636.851807,615.338379 636.481262,608.171936 635.972046,599.520813 
	C638.706360,601.898621 640.331970,603.195618 641.825806,604.629822 
	C653.349915,615.693542 664.817200,626.816589 676.375793,637.844116 
	C679.471252,640.797424 682.965271,641.033752 686.164734,638.002563 
	C688.889343,635.421265 688.380798,631.795898 684.931580,628.435547 
	C680.402039,624.022766 675.771484,619.713623 670.668091,614.874634 
M359.499817,350.081146 
	C350.007141,350.089996 340.511017,349.961395 331.024078,350.199432 
	C328.491699,350.262970 325.674957,350.933563 323.538910,352.231140 
	C319.744904,354.535889 319.950745,359.390350 323.833344,361.548309 
	C325.599335,362.529846 327.911041,362.896057 329.979309,362.909454 
	C347.132782,363.020782 364.287720,362.912323 381.441223,363.021362 
	C390.631531,363.079742 398.611603,366.224335 405.307129,372.731293 
	C420.106689,387.114044 435.043060,401.355865 449.904480,415.675049 
	C457.693726,423.180145 465.365051,430.809540 473.242828,438.220001 
	C477.085175,441.834351 480.473877,441.864380 483.204681,438.650391 
	C486.123322,435.215302 485.461487,431.953644 482.343781,428.965515 
	C481.142944,427.814545 480.015747,426.587006 478.821381,425.428986 
	C456.842682,404.120361 434.867157,382.808441 412.869690,361.519196 
	C408.171783,356.972534 404.982971,351.545807 404.113861,345.097321 
	C403.116486,337.697418 402.530884,330.233795 401.998444,322.781281 
	C401.180511,311.332214 400.603760,299.866058 399.837585,288.413025 
	C399.475494,283.000458 397.090363,280.645111 392.577240,280.917023 
	C388.178497,281.182098 386.350861,283.490356 386.672211,288.894196 
	C387.313721,299.681732 388.119720,310.459320 388.813232,321.243927 
	C389.166382,326.735382 389.422913,332.233063 389.780487,338.777985 
	C387.774170,337.354187 386.638885,336.746399 385.747711,335.885834 
	C375.454956,325.945831 365.213806,315.952484 354.921600,306.011932 
	C352.777161,303.940735 350.636108,301.806335 348.213409,300.098358 
	C345.316254,298.055908 341.978485,298.592316 340.385071,301.505615 
	C339.373383,303.355469 340.030823,306.315918 340.475159,308.677551 
	C340.684357,309.789490 342.106628,310.713043 343.059906,311.638916 
	C354.636475,322.882690 366.232819,334.106079 377.808807,345.350433 
	C379.028748,346.535431 380.151611,347.820374 382.281769,350.079437 
	C374.029785,350.079437 367.264740,350.079437 359.499817,350.081146 
z"/>
<path fill="#70B03D" opacity="1.000000" stroke="none" 
	d="
M405.497864,426.498718 
	C413.775574,435.642853 421.813995,444.527954 429.829376,453.433807 
	C435.829498,460.100494 443.159668,463.704132 452.262390,463.535095 
	C455.252747,463.479553 458.250519,463.813019 461.244629,463.973816 
	C465.051331,464.178162 467.744812,465.856232 467.862579,469.921967 
	C467.977631,473.894073 465.349854,476.097321 461.771667,476.648590 
	C458.508850,477.151306 455.109558,477.153046 451.803589,476.914764 
	C443.670380,476.328705 437.175385,479.512817 431.824188,485.282379 
	C423.566772,494.185425 415.496948,503.262299 407.256073,512.180908 
	C394.103668,526.414978 378.679596,537.338257 359.644135,541.861511 
	C333.992981,547.956726 310.157715,543.070374 288.480743,528.007690 
	C271.174225,515.981995 257.767456,500.089966 244.773743,483.788727 
	C241.870621,480.146667 238.558105,476.805450 235.925674,472.986847 
	C235.003342,471.649017 234.689621,468.595520 235.565826,467.506805 
	C250.597229,448.829651 265.710571,430.214172 284.659790,415.187469 
	C318.654724,388.229553 365.206055,389.657318 397.217743,418.750458 
	C399.927765,421.213440 402.573212,423.747528 405.497864,426.498718 
M395.299133,505.802368 
	C403.835236,496.208984 412.371368,486.615570 421.953735,475.846313 
	C418.386383,475.846313 416.448242,475.845581 414.510101,475.846436 
	C403.512543,475.851349 392.510681,476.046143 381.518890,475.797424 
	C373.742462,475.621429 367.129974,477.861206 361.583038,483.333649 
	C358.858307,486.021851 355.988708,488.562622 353.217651,491.204651 
	C345.265991,498.785828 337.326569,506.379791 329.392395,513.979248 
	C326.831299,516.432251 324.123108,516.922363 321.522034,514.241272 
	C318.885742,511.523865 319.812988,508.794586 322.036224,506.290344 
	C322.582977,505.674469 323.293335,505.207214 323.891663,504.633301 
	C333.545135,495.372620 343.192627,486.105743 353.473236,476.233704 
	C351.089447,476.087372 349.512909,475.908081 347.936188,475.906403 
	C329.940491,475.887024 311.944702,475.920319 293.949249,475.854431 
	C292.207062,475.848053 289.741638,475.865845 288.890167,474.825897 
	C287.495850,473.122925 286.259949,470.426422 286.565247,468.390015 
	C287.073456,465.000092 290.099854,464.036438 293.454498,464.048218 
	C311.117035,464.110229 328.779907,464.078247 346.442657,464.078857 
	C348.363220,464.078918 350.283783,464.078857 353.734375,464.078857 
	C350.872314,461.362885 349.108154,459.716339 347.374115,458.038605 
	C338.884216,449.824066 330.327698,441.675507 321.994415,433.304840 
	C320.675171,431.979675 319.606628,429.538269 319.835541,427.798950 
	C320.036865,426.269226 322.259094,423.830261 323.515137,423.874725 
	C325.700409,423.952087 328.257965,425.173981 329.910126,426.717926 
	C339.153137,435.355286 348.248627,444.155060 357.243195,453.052368 
	C364.798553,460.525909 373.199768,464.969635 384.376465,464.213165 
	C395.157410,463.483490 406.027618,464.084137 416.858521,464.066406 
	C418.341644,464.063995 419.824432,463.865417 422.372467,463.680267 
	C418.828064,460.226624 416.153870,457.762878 413.639648,455.145477 
	C404.776245,445.918091 396.643677,435.856354 387.010529,427.525726 
	C359.035522,403.333313 324.343964,402.535217 294.436096,424.320557 
	C277.694519,436.515289 264.859131,452.501678 251.545654,468.022797 
	C250.839294,468.846252 251.148376,471.504211 251.964417,472.524963 
	C263.500397,486.954987 275.042694,501.415222 289.518311,513.115173 
	C309.375977,529.165161 331.743988,534.987305 356.816132,529.127380 
	C371.899292,525.602112 384.083038,517.134155 395.299133,505.802368 
z"/>
<path fill="#70B03D" opacity="1.000000" stroke="none" 
	d="
M713.979797,539.891113 
	C683.680786,549.234314 655.979370,544.650940 632.266113,524.252075 
	C618.852783,512.713440 607.413696,498.860291 595.256714,485.889130 
	C589.581360,479.833710 583.134399,476.226044 574.585083,476.901093 
	C571.280579,477.162018 567.907043,477.074677 564.607727,476.733124 
	C561.034912,476.363190 558.837646,474.229095 558.911255,470.444153 
	C558.988159,466.494385 561.113281,464.328644 565.089233,464.054321 
	C566.584167,463.951172 568.090820,463.698547 569.574097,463.794159 
	C584.792786,464.775391 595.099976,456.695282 604.454041,445.886414 
	C613.358887,435.596710 622.427185,425.258392 632.638794,416.331604 
	C650.454895,400.757141 671.725281,393.757629 695.452026,396.206482 
	C714.178040,398.139191 730.955139,405.754913 744.753906,418.314789 
	C758.374939,430.712891 770.760376,444.472687 783.610046,457.710724 
	C786.385132,460.569702 789.061340,463.591827 791.301575,466.868073 
	C792.135132,468.086884 792.374207,470.896973 791.557678,471.885376 
	C772.938538,494.421692 755.476013,518.202881 729.361084,533.075073 
	C724.625854,535.771729 719.372314,537.558411 713.979797,539.891113 
M661.303589,413.612396 
	C651.666870,417.341675 643.264465,423.075165 636.113525,430.387451 
	C625.880493,440.851410 616.070984,451.729614 606.113464,462.461426 
	C605.875793,462.717529 606.025757,463.333191 605.975952,464.056244 
	C620.121460,464.056244 634.107361,463.962585 648.091003,464.101959 
	C653.755188,464.158386 658.526001,462.195312 662.729309,458.671326 
	C666.170044,455.786652 669.505859,452.766846 672.763367,449.675507 
	C681.096313,441.767517 689.221130,433.631317 697.778931,425.977448 
	C699.311157,424.607025 702.704041,424.426849 704.877197,425.019531 
	C706.054016,425.340546 707.149475,428.503906 707.018127,430.292328 
	C706.908203,431.788574 705.104187,433.297363 703.806641,434.547699 
	C693.673828,444.311462 683.482117,454.014130 673.064514,463.968903 
	C673.833801,464.120941 674.263550,464.281067 674.692688,464.279816 
	C694.021301,464.223785 713.349854,464.132477 732.678467,464.100525 
	C737.312500,464.092865 740.283386,466.529175 740.282471,470.095245 
	C740.281555,473.564850 737.242310,475.887451 732.568604,475.888550 
	C717.237549,475.892090 701.906433,475.865112 686.575378,475.851868 
	C682.316162,475.848175 678.056946,475.851288 672.848694,475.851288 
	C673.904968,477.177490 674.224609,477.697998 674.654358,478.100922 
	C684.365723,487.205048 694.116821,496.266968 703.792664,505.408508 
	C706.550537,508.014069 708.436890,511.042969 704.895935,514.381592 
	C701.774231,517.324829 698.923401,516.070557 696.195923,513.427490 
	C685.675232,503.232391 675.142212,493.049103 664.516785,482.963654 
	C659.801758,478.488251 654.381714,475.657928 647.537109,475.793243 
	C636.376465,476.013855 625.208557,475.866852 614.043701,475.873962 
	C610.983459,475.875916 607.923218,475.874268 603.909729,475.874268 
	C611.904480,485.089722 618.971069,493.431580 626.273132,501.562012 
	C629.490723,505.144592 633.121216,508.368744 636.675659,511.634399 
	C666.681152,539.202332 710.079224,536.805237 737.151184,512.330566 
	C750.671021,500.107819 762.369812,485.872192 774.914734,472.568146 
	C777.124268,470.224854 775.987244,468.347260 774.225464,466.544189 
	C761.679871,453.705505 749.928894,439.942291 736.380493,428.265411 
	C714.775940,409.645172 689.843079,403.193146 661.303589,413.612396 
z"/>
<path fill="#70B03C" opacity="1.000000" stroke="none" 
	d="
M453.215088,342.913330 
	C442.935822,326.997650 438.236267,309.988586 440.074799,291.402435 
	C441.426239,277.740204 446.172302,265.204437 453.852539,253.869019 
	C463.333405,239.876053 474.779663,227.606003 487.532684,216.539215 
	C495.812408,209.354202 504.088318,202.164856 512.890015,194.522400 
	C524.724121,204.999069 536.588928,214.894409 547.741760,225.535904 
	C560.663635,237.865372 572.194397,251.436295 579.520813,268.022125 
	C592.451904,297.296600 587.773804,324.681305 568.075317,348.786774 
	C557.225098,362.064392 543.680115,373.213623 530.860657,384.780060 
	C523.347168,391.559143 518.550232,399.011719 519.105164,409.401611 
	C519.282349,412.719238 519.034302,416.059875 518.973694,419.389862 
	C518.902588,423.295654 517.154297,425.769073 513.039001,425.889557 
	C508.943146,426.009552 507.515533,423.061279 507.195282,419.770630 
	C506.809692,415.808716 506.667847,411.745728 507.090302,407.798187 
	C508.044617,398.880402 504.003357,392.367218 497.709015,386.841736 
	C490.330322,380.364380 482.477142,374.379639 475.513000,367.490570 
	C467.743866,359.805267 460.742310,351.343933 453.215088,342.913330 
M493.506500,228.991806 
	C484.677124,238.717636 474.853912,247.727356 467.223297,258.316986 
	C450.866486,281.016449 447.485260,305.456757 461.380035,330.923065 
	C467.965149,342.992279 477.932007,352.124054 487.970612,361.145996 
	C493.936523,366.507721 500.167908,371.573975 506.991333,377.378143 
	C506.991333,360.172974 507.133423,344.049438 506.834839,327.934052 
	C506.791138,325.575531 505.123383,322.798279 503.390411,321.003174 
	C497.964478,315.382568 492.105713,310.182526 486.494446,304.737335 
	C480.881104,299.290100 475.191437,293.900665 469.935486,288.121857 
	C468.741486,286.809113 468.389343,283.629852 469.136749,281.985718 
	C469.784058,280.561646 472.538269,279.422424 474.363251,279.419495 
	C475.823456,279.417145 477.428741,281.160889 478.725739,282.387543 
	C487.855743,291.022003 496.922577,299.723236 506.670166,309.034149 
	C506.864746,306.964355 507.052856,305.884338 507.054840,304.803986 
	C507.085022,288.306030 507.067230,271.807983 507.114777,255.310104 
	C507.132385,249.190567 509.218231,246.191772 513.260376,246.176834 
	C516.984924,246.163086 518.887146,249.075699 518.894287,254.967972 
	C518.913879,271.132721 518.895020,287.297516 518.916016,303.462250 
	C518.917969,305.009705 519.091675,306.556976 519.185730,308.104309 
	C519.841064,308.566772 520.496460,309.029205 521.151794,309.491669 
	C526.446106,303.558136 531.621826,297.512726 537.075684,291.729645 
	C540.834167,287.744232 544.907410,284.043915 548.977661,280.368622 
	C551.221802,278.342194 554.278687,277.771088 555.911377,280.512604 
	C556.995483,282.333038 556.540222,285.276703 556.212036,287.639526 
	C556.061218,288.725555 554.614929,289.679443 553.665161,290.599426 
	C544.097168,299.867798 534.588074,309.199127 524.892578,318.332581 
	C520.709778,322.272888 518.886353,326.893433 518.920959,332.547760 
	C519.004517,346.212097 518.929199,359.877380 518.957092,373.542206 
	C518.959595,374.749634 519.249695,375.956512 519.551270,378.282104 
	C531.632080,366.811340 543.573059,356.641937 554.138733,345.202301 
	C577.413025,320.002777 579.218750,288.653778 560.005737,260.162689 
	C551.469971,247.504990 540.938904,236.658936 529.570740,226.572845 
	C524.024109,221.651733 518.437988,216.775116 512.918945,211.921661 
	C506.283264,217.743744 500.152191,223.123093 493.506500,228.991806 
z"/>
<path fill="#70B03D" opacity="1.000000" stroke="none" 
	d="
M579.728821,608.110657 
	C592.273010,637.494202 587.489136,664.328796 569.462952,689.443176 
	C556.788330,707.101562 540.034912,720.607422 523.534302,734.356812 
	C520.120117,737.201782 516.512451,741.956909 513.004089,741.947693 
	C509.450195,741.938477 505.842987,737.196960 502.373230,734.387268 
	C485.668396,720.860596 469.226685,707.071533 456.552917,689.418579 
	C444.485168,672.609741 438.137329,654.119324 439.991516,633.267029 
	C441.804932,612.873169 450.619080,595.565674 464.808990,581.193848 
	C474.614624,571.262390 485.163208,562.030823 495.745178,552.910400 
	C503.879578,545.899475 508.648163,537.860535 507.081848,526.794800 
	C506.805359,524.841431 506.848145,522.756897 507.206879,520.818665 
	C507.841309,517.391174 509.953308,514.339661 513.533630,515.348083 
	C515.722656,515.964661 518.290100,519.012634 518.719360,521.332764 
	C519.674561,526.495422 519.152588,531.910645 519.673584,537.179321 
	C520.389282,544.417664 525.704285,548.775940 530.576599,553.319702 
	C542.132080,564.096130 554.228210,574.359253 565.060913,585.817749 
	C570.997070,592.096680 574.811523,600.381531 579.728821,608.110657 
M455.199860,657.083374 
	C458.569061,670.537476 465.799469,681.949768 475.290894,691.648438 
	C487.094788,703.710022 499.742645,714.945679 512.037842,726.549133 
	C529.966858,712.205078 546.712402,698.487366 559.398865,680.671509 
	C578.484680,653.869080 578.016724,623.385010 557.321228,597.650757 
	C549.452576,587.866333 539.680176,579.606262 530.708496,570.718933 
	C527.226135,567.269348 523.558899,564.006348 519.495789,560.209717 
	C519.209717,561.615234 518.983459,562.211182 518.982422,562.807495 
	C518.955505,578.303528 518.665894,593.808899 519.168823,609.288391 
	C519.278687,612.671204 521.523315,616.659607 523.999390,619.171997 
	C533.929565,629.247681 544.286011,638.907104 554.601624,648.596191 
	C557.469543,651.289978 559.468933,653.970886 556.287903,657.467407 
	C553.113525,660.956665 550.033875,659.371765 547.268372,656.641174 
	C541.936157,651.376404 536.644348,646.070862 531.312805,640.805420 
	C527.503113,637.043030 523.656128,633.318420 518.924500,628.696533 
	C518.924500,631.783081 518.923828,633.570740 518.924622,635.358337 
	C518.931641,651.687561 518.878784,668.017273 518.987732,684.345764 
	C519.015503,688.508850 518.037842,691.751770 513.367737,692.208923 
	C509.640228,692.573853 507.071655,689.284302 507.066895,684.436218 
	C507.050842,668.106934 507.080322,651.777588 507.091949,635.448303 
	C507.093384,633.434387 507.092163,631.420471 507.092163,629.406616 
	C506.467499,628.962097 505.842834,628.517639 505.218170,628.073181 
	C497.562439,636.392761 489.955017,644.757690 482.216888,652.999878 
	C480.297668,655.044128 478.171570,657.112061 475.728760,658.368347 
	C474.166199,659.171936 471.046448,659.297180 470.066498,658.304016 
	C468.768707,656.988770 468.215393,654.157166 468.585968,652.214539 
	C468.905884,650.537537 470.854858,649.076965 472.273407,647.718994 
	C482.253906,638.164612 492.253204,628.629211 502.313965,619.159485 
	C505.827240,615.852600 507.232544,611.995422 507.163727,607.132324 
	C506.963318,592.972229 507.118011,578.807129 507.113800,564.644043 
	C507.113373,563.256042 506.977295,561.868042 506.838379,559.230652 
	C494.255005,571.548645 481.663727,582.315430 470.968872,594.717590 
	C455.819397,612.285522 448.923737,632.811768 455.199860,657.083374 
z"/>
<path fill="#1F9ADD" opacity="1.000000" stroke="none" 
	d="
M420.899139,552.914551 
	C438.191132,536.058289 455.215546,519.430664 472.252014,502.815399 
	C472.962006,502.122955 473.784271,501.545502 474.555389,500.915924 
	C477.772400,498.289459 480.990967,498.138031 483.801483,501.361298 
	C486.541016,504.503082 485.488434,507.617981 482.904083,510.255585 
	C474.991455,518.331299 467.051147,526.381958 459.008484,534.327820 
	C444.690582,548.473450 430.441803,562.694946 415.861786,576.566956 
	C408.129272,583.923950 403.566315,592.286682 403.058197,603.128174 
	C402.342499,618.398804 401.133972,633.651001 399.833801,648.885254 
	C399.599731,651.627563 398.662323,655.189880 396.735748,656.730591 
	C392.272461,660.299988 386.468994,656.672729 386.674347,650.527954 
	C386.962891,641.892151 387.790375,633.274719 388.357758,624.647522 
	C388.857422,617.049316 389.316315,609.448486 389.895050,600.226074 
	C387.532501,602.277100 386.216125,603.318054 385.015167,604.478394 
	C374.007080,615.114380 363.034485,625.787170 352.004425,636.400269 
	C350.703491,637.652100 349.023865,639.618164 347.686462,639.491638 
	C344.973083,639.234802 341.564636,638.489197 339.920837,636.634827 
	C337.565247,633.977539 339.000336,630.781982 341.613922,628.302551 
	C351.630035,618.800537 361.579376,609.228088 371.550995,599.679199 
	C374.411713,596.939758 377.263733,594.191284 380.119751,591.446899 
	C379.989532,590.936646 379.859314,590.426392 379.729095,589.916138 
	C377.702850,589.916138 375.676636,589.914856 373.650391,589.916382 
	C358.993225,589.927368 344.336060,589.955444 329.678925,589.941711 
	C324.070770,589.936462 321.195038,587.847595 321.060699,583.820740 
	C320.924744,579.744324 324.252747,577.154663 329.779175,577.144531 
	C347.101318,577.112610 364.425934,576.933716 381.744720,577.169495 
	C391.512421,577.302429 399.578918,573.941650 406.413391,567.175415 
	C411.145447,562.490601 415.893036,557.821472 420.899139,552.914551 
z"/>
<path fill="#1F9ADC" opacity="1.000000" stroke="none" 
	d="
M554.218811,437.262634 
	C551.339233,440.118958 548.606079,442.105225 544.724243,439.795380 
	C540.318542,437.173798 539.976318,432.787048 544.230286,428.601074 
	C552.056396,420.900177 560.066040,413.386078 567.938416,405.731750 
	C583.092163,390.997894 598.199524,376.216400 613.334351,361.463165 
	C619.495911,355.456909 622.306763,347.924652 622.914673,339.565125 
	C624.133240,322.807465 625.142517,306.034485 626.216492,289.266449 
	C626.447998,285.652527 626.829651,282.080902 631.123352,281.010803 
	C636.585144,279.649628 639.916138,283.218536 639.478210,289.463806 
	C638.373657,305.214600 637.386963,320.973694 636.377625,336.731049 
	C636.349609,337.169098 636.601379,337.625122 636.938538,338.869873 
	C638.578186,337.495209 639.964050,336.467896 641.195007,335.280182 
	C651.968140,324.885925 662.712952,314.462402 673.469360,304.050812 
	C673.947388,303.588104 674.456299,303.157410 674.951111,302.711975 
	C679.819824,298.328461 683.145142,297.782593 686.218750,300.862427 
	C689.202209,303.851929 688.491943,307.215515 683.639648,311.904327 
	C671.558167,323.578949 659.415039,335.189728 647.313416,346.843475 
	C646.519226,347.608246 645.865967,348.519318 644.507812,350.112213 
	C647.507080,350.112213 649.632568,350.111633 651.757996,350.112274 
	C665.750183,350.116608 679.742371,350.121063 693.734558,350.125763 
	C694.567444,350.126038 695.400574,350.115021 696.233093,350.132111 
	C701.967285,350.249908 705.064392,352.617889 704.960632,356.797028 
	C704.860779,360.818146 701.997803,362.954956 696.379211,362.969360 
	C680.055237,363.011200 663.730896,362.955414 647.407043,363.026337 
	C644.767883,363.037781 641.864197,362.880096 639.544250,363.875854 
	C633.391052,366.516876 626.408630,368.573547 621.673340,372.941315 
	C598.927307,393.922180 576.815552,415.590759 554.218811,437.262634 
z"/>
<path fill="#209BDD" opacity="1.000000" stroke="none" 
	d="
M670.926270,615.117310 
	C675.771484,619.713623 680.402039,624.022766 684.931580,628.435547 
	C688.380798,631.795898 688.889343,635.421265 686.164734,638.002563 
	C682.965271,641.033752 679.471252,640.797424 676.375793,637.844116 
	C664.817200,626.816589 653.349915,615.693542 641.825806,604.629822 
	C640.331970,603.195618 638.706360,601.898621 635.972046,599.520813 
	C636.481262,608.171936 636.851807,615.338379 637.337280,622.497070 
	C637.955994,631.619934 638.731628,640.732483 639.312500,649.857605 
	C639.611023,654.546509 637.392090,657.472412 633.626892,657.814941 
	C629.665710,658.175354 626.663818,655.485474 626.229309,650.767029 
	C625.695374,644.969177 625.500854,639.141052 625.052734,633.334229 
	C624.144836,621.570740 623.054016,609.820496 622.251953,598.050232 
	C621.672424,589.545593 617.616394,582.906616 611.755676,577.148438 
	C589.673279,555.452576 567.540344,533.808167 545.494568,512.075256 
	C543.098450,509.713165 539.828979,507.397491 541.714417,503.166565 
	C543.947144,498.156097 548.872803,497.680603 553.562866,502.178497 
	C564.971924,513.120361 576.295105,524.152039 587.631836,535.169067 
	C598.845276,546.066223 609.988098,557.036377 621.249329,567.883789 
	C627.654053,574.053162 635.498840,576.991821 644.324219,577.058838 
	C661.477600,577.189026 678.632629,577.117065 695.786194,577.236877 
	C697.704590,577.250244 700.213379,577.349976 701.391724,578.496033 
	C703.080139,580.138245 704.968506,583.008545 704.595154,584.932007 
	C704.224243,586.842407 701.382935,588.739685 699.208618,589.690186 
	C697.377380,590.490479 694.948608,589.957153 692.784363,589.956726 
	C679.460693,589.953918 666.137024,589.922791 652.813354,589.935608 
	C651.044861,589.937317 649.276428,590.134399 647.050903,590.268494 
	C655.236938,598.797302 662.952515,606.835938 670.926270,615.117310 
z"/>
<path fill="#209BDD" opacity="1.000000" stroke="none" 
	d="
M359.999756,350.080292 
	C367.264740,350.079437 374.029785,350.079437 382.281769,350.079437 
	C380.151611,347.820374 379.028748,346.535431 377.808807,345.350433 
	C366.232819,334.106079 354.636475,322.882690 343.059906,311.638916 
	C342.106628,310.713043 340.684357,309.789490 340.475159,308.677551 
	C340.030823,306.315918 339.373383,303.355469 340.385071,301.505615 
	C341.978485,298.592316 345.316254,298.055908 348.213409,300.098358 
	C350.636108,301.806335 352.777161,303.940735 354.921600,306.011932 
	C365.213806,315.952484 375.454956,325.945831 385.747711,335.885834 
	C386.638885,336.746399 387.774170,337.354187 389.780487,338.777985 
	C389.422913,332.233063 389.166382,326.735382 388.813232,321.243927 
	C388.119720,310.459320 387.313721,299.681732 386.672211,288.894196 
	C386.350861,283.490356 388.178497,281.182098 392.577240,280.917023 
	C397.090363,280.645111 399.475494,283.000458 399.837585,288.413025 
	C400.603760,299.866058 401.180511,311.332214 401.998444,322.781281 
	C402.530884,330.233795 403.116486,337.697418 404.113861,345.097321 
	C404.982971,351.545807 408.171783,356.972534 412.869690,361.519196 
	C434.867157,382.808441 456.842682,404.120361 478.821381,425.428986 
	C480.015747,426.587006 481.142944,427.814545 482.343781,428.965515 
	C485.461487,431.953644 486.123322,435.215302 483.204681,438.650391 
	C480.473877,441.864380 477.085175,441.834351 473.242828,438.220001 
	C465.365051,430.809540 457.693726,423.180145 449.904480,415.675049 
	C435.043060,401.355865 420.106689,387.114044 405.307129,372.731293 
	C398.611603,366.224335 390.631531,363.079742 381.441223,363.021362 
	C364.287720,362.912323 347.132782,363.020782 329.979309,362.909454 
	C327.911041,362.896057 325.599335,362.529846 323.833344,361.548309 
	C319.950745,359.390350 319.744904,354.535889 323.538910,352.231140 
	C325.674957,350.933563 328.491699,350.262970 331.024078,350.199432 
	C340.511017,349.961395 350.007141,350.089996 359.999756,350.080292 
z"/>
<path fill="#020401" opacity="1.000000" stroke="none" 
	d="
M395.075867,506.077820 
	C384.083038,517.134155 371.899292,525.602112 356.816132,529.127380 
	C331.743988,534.987305 309.375977,529.165161 289.518311,513.115173 
	C275.042694,501.415222 263.500397,486.954987 251.964417,472.524963 
	C251.148376,471.504211 250.839294,468.846252 251.545654,468.022797 
	C264.859131,452.501678 277.694519,436.515289 294.436096,424.320557 
	C324.343964,402.535217 359.035522,403.333313 387.010529,427.525726 
	C396.643677,435.856354 404.776245,445.918091 413.639648,455.145477 
	C416.153870,457.762878 418.828064,460.226624 422.372467,463.680267 
	C419.824432,463.865417 418.341644,464.063995 416.858521,464.066406 
	C406.027618,464.084137 395.157410,463.483490 384.376465,464.213165 
	C373.199768,464.969635 364.798553,460.525909 357.243195,453.052368 
	C348.248627,444.155060 339.153137,435.355286 329.910126,426.717926 
	C328.257965,425.173981 325.700409,423.952087 323.515137,423.874725 
	C322.259094,423.830261 320.036865,426.269226 319.835541,427.798950 
	C319.606628,429.538269 320.675171,431.979675 321.994415,433.304840 
	C330.327698,441.675507 338.884216,449.824066 347.374115,458.038605 
	C349.108154,459.716339 350.872314,461.362885 353.734375,464.078857 
	C350.283783,464.078857 348.363220,464.078918 346.442657,464.078857 
	C328.779907,464.078247 311.117035,464.110229 293.454498,464.048218 
	C290.099854,464.036438 287.073456,465.000092 286.565247,468.390015 
	C286.259949,470.426422 287.495850,473.122925 288.890167,474.825897 
	C289.741638,475.865845 292.207062,475.848053 293.949249,475.854431 
	C311.944702,475.920319 329.940491,475.887024 347.936188,475.906403 
	C349.512909,475.908081 351.089447,476.087372 353.473236,476.233704 
	C343.192627,486.105743 333.545135,495.372620 323.891663,504.633301 
	C323.293335,505.207214 322.582977,505.674469 322.036224,506.290344 
	C319.812988,508.794586 318.885742,511.523865 321.522034,514.241272 
	C324.123108,516.922363 326.831299,516.432251 329.392395,513.979248 
	C337.326569,506.379791 345.265991,498.785828 353.217651,491.204651 
	C355.988708,488.562622 358.858307,486.021851 361.583038,483.333649 
	C367.129974,477.861206 373.742462,475.621429 381.518890,475.797424 
	C392.510681,476.046143 403.512543,475.851349 414.510101,475.846436 
	C416.448242,475.845581 418.386383,475.846313 421.953735,475.846313 
	C412.371368,486.615570 403.835236,496.208984 395.075867,506.077820 
z"/>
<path fill="#020401" opacity="1.000000" stroke="none" 
	d="
M661.664124,413.467407 
	C689.843079,403.193146 714.775940,409.645172 736.380493,428.265411 
	C749.928894,439.942291 761.679871,453.705505 774.225464,466.544189 
	C775.987244,468.347260 777.124268,470.224854 774.914734,472.568146 
	C762.369812,485.872192 750.671021,500.107819 737.151184,512.330566 
	C710.079224,536.805237 666.681152,539.202332 636.675659,511.634399 
	C633.121216,508.368744 629.490723,505.144592 626.273132,501.562012 
	C618.971069,493.431580 611.904480,485.089722 603.909729,475.874268 
	C607.923218,475.874268 610.983459,475.875916 614.043701,475.873962 
	C625.208557,475.866852 636.376465,476.013855 647.537109,475.793243 
	C654.381714,475.657928 659.801758,478.488251 664.516785,482.963654 
	C675.142212,493.049103 685.675232,503.232391 696.195923,513.427490 
	C698.923401,516.070557 701.774231,517.324829 704.895935,514.381592 
	C708.436890,511.042969 706.550537,508.014069 703.792664,505.408508 
	C694.116821,496.266968 684.365723,487.205048 674.654358,478.100922 
	C674.224609,477.697998 673.904968,477.177490 672.848694,475.851288 
	C678.056946,475.851288 682.316162,475.848175 686.575378,475.851868 
	C701.906433,475.865112 717.237549,475.892090 732.568604,475.888550 
	C737.242310,475.887451 740.281555,473.564850 740.282471,470.095245 
	C740.283386,466.529175 737.312500,464.092865 732.678467,464.100525 
	C713.349854,464.132477 694.021301,464.223785 674.692688,464.279816 
	C674.263550,464.281067 673.833801,464.120941 673.064514,463.968903 
	C683.482117,454.014130 693.673828,444.311462 703.806641,434.547699 
	C705.104187,433.297363 706.908203,431.788574 707.018127,430.292328 
	C707.149475,428.503906 706.054016,425.340546 704.877197,425.019531 
	C702.704041,424.426849 699.311157,424.607025 697.778931,425.977448 
	C689.221130,433.631317 681.096313,441.767517 672.763367,449.675507 
	C669.505859,452.766846 666.170044,455.786652 662.729309,458.671326 
	C658.526001,462.195312 653.755188,464.158386 648.091003,464.101959 
	C634.107361,463.962585 620.121460,464.056244 605.975952,464.056244 
	C606.025757,463.333191 605.875793,462.717529 606.113464,462.461426 
	C616.070984,451.729614 625.880493,440.851410 636.113525,430.387451 
	C643.264465,423.075165 651.666870,417.341675 661.664124,413.467407 
z"/>
<path fill="#020401" opacity="1.000000" stroke="none" 
	d="
M493.763794,228.747131 
	C500.152191,223.123093 506.283264,217.743744 512.918945,211.921661 
	C518.437988,216.775116 524.024109,221.651733 529.570740,226.572845 
	C540.938904,236.658936 551.469971,247.504990 560.005737,260.162689 
	C579.218750,288.653778 577.413025,320.002777 554.138733,345.202301 
	C543.573059,356.641937 531.632080,366.811340 519.551270,378.282104 
	C519.249695,375.956512 518.959595,374.749634 518.957092,373.542206 
	C518.929199,359.877380 519.004517,346.212097 518.920959,332.547760 
	C518.886353,326.893433 520.709778,322.272888 524.892578,318.332581 
	C534.588074,309.199127 544.097168,299.867798 553.665161,290.599426 
	C554.614929,289.679443 556.061218,288.725555 556.212036,287.639526 
	C556.540222,285.276703 556.995483,282.333038 555.911377,280.512604 
	C554.278687,277.771088 551.221802,278.342194 548.977661,280.368622 
	C544.907410,284.043915 540.834167,287.744232 537.075684,291.729645 
	C531.621826,297.512726 526.446106,303.558136 521.151794,309.491669 
	C520.496460,309.029205 519.841064,308.566772 519.185730,308.104309 
	C519.091675,306.556976 518.917969,305.009705 518.916016,303.462250 
	C518.895020,287.297516 518.913879,271.132721 518.894287,254.967972 
	C518.887146,249.075699 516.984924,246.163086 513.260376,246.176834 
	C509.218231,246.191772 507.132385,249.190567 507.114777,255.310104 
	C507.067230,271.807983 507.085022,288.306030 507.054840,304.803986 
	C507.052856,305.884338 506.864746,306.964355 506.670166,309.034149 
	C496.922577,299.723236 487.855743,291.022003 478.725739,282.387543 
	C477.428741,281.160889 475.823456,279.417145 474.363251,279.419495 
	C472.538269,279.422424 469.784058,280.561646 469.136749,281.985718 
	C468.389343,283.629852 468.741486,286.809113 469.935486,288.121857 
	C475.191437,293.900665 480.881104,299.290100 486.494446,304.737335 
	C492.105713,310.182526 497.964478,315.382568 503.390411,321.003174 
	C505.123383,322.798279 506.791138,325.575531 506.834839,327.934052 
	C507.133423,344.049438 506.991333,360.172974 506.991333,377.378143 
	C500.167908,371.573975 493.936523,366.507721 487.970612,361.145996 
	C477.932007,352.124054 467.965149,342.992279 461.380035,330.923065 
	C447.485260,305.456757 450.866486,281.016449 467.223297,258.316986 
	C474.853912,247.727356 484.677124,238.717636 493.763794,228.747131 
z"/>
<path fill="#020401" opacity="1.000000" stroke="none" 
	d="
M455.091583,656.685059 
	C448.923737,632.811768 455.819397,612.285522 470.968872,594.717590 
	C481.663727,582.315430 494.255005,571.548645 506.838379,559.230652 
	C506.977295,561.868042 507.113373,563.256042 507.113800,564.644043 
	C507.118011,578.807129 506.963318,592.972229 507.163727,607.132324 
	C507.232544,611.995422 505.827240,615.852600 502.313965,619.159485 
	C492.253204,628.629211 482.253906,638.164612 472.273407,647.718994 
	C470.854858,649.076965 468.905884,650.537537 468.585968,652.214539 
	C468.215393,654.157166 468.768707,656.988770 470.066498,658.304016 
	C471.046448,659.297180 474.166199,659.171936 475.728760,658.368347 
	C478.171570,657.112061 480.297668,655.044128 482.216888,652.999878 
	C489.955017,644.757690 497.562439,636.392761 505.218170,628.073181 
	C505.842834,628.517639 506.467499,628.962097 507.092163,629.406616 
	C507.092163,631.420471 507.093384,633.434387 507.091949,635.448303 
	C507.080322,651.777588 507.050842,668.106934 507.066895,684.436218 
	C507.071655,689.284302 509.640228,692.573853 513.367737,692.208923 
	C518.037842,691.751770 519.015503,688.508850 518.987732,684.345764 
	C518.878784,668.017273 518.931641,651.687561 518.924622,635.358337 
	C518.923828,633.570740 518.924500,631.783081 518.924500,628.696533 
	C523.656128,633.318420 527.503113,637.043030 531.312805,640.805420 
	C536.644348,646.070862 541.936157,651.376404 547.268372,656.641174 
	C550.033875,659.371765 553.113525,660.956665 556.287903,657.467407 
	C559.468933,653.970886 557.469543,651.289978 554.601624,648.596191 
	C544.286011,638.907104 533.929565,629.247681 523.999390,619.171997 
	C521.523315,616.659607 519.278687,612.671204 519.168823,609.288391 
	C518.665894,593.808899 518.955505,578.303528 518.982422,562.807495 
	C518.983459,562.211182 519.209717,561.615234 519.495789,560.209717 
	C523.558899,564.006348 527.226135,567.269348 530.708496,570.718933 
	C539.680176,579.606262 549.452576,587.866333 557.321228,597.650757 
	C578.016724,623.385010 578.484680,653.869080 559.398865,680.671509 
	C546.712402,698.487366 529.966858,712.205078 512.037842,726.549133 
	C499.742645,714.945679 487.094788,703.710022 475.290894,691.648438 
	C465.799469,681.949768 458.569061,670.537476 455.091583,656.685059 
z"/>
</svg>